<?xml version="1.0" standalone="no"?>
<!DOCTYPE svg PUBLIC "-//W3C//DTD SVG 20010904//EN"
 "http://www.w3.org/TR/2001/REC-SVG-20010904/DTD/svg10.dtd">
<svg version="1.0" xmlns="http://www.w3.org/2000/svg"
 width="512.000000pt" height="512.000000pt" viewBox="0 0 512.000000 512.000000"
 preserveAspectRatio="xMidYMid meet">
<metadata>
Created by potrace 1.14, written by Peter Selinger 2001-2017
</metadata>
<g transform="translate(0.000000,512.000000) scale(0.100000,-0.100000)"
fill="#000000" stroke="none">
<path d="M2379 5116 c-2 -2 -40 -6 -83 -10 -44 -4 -82 -8 -85 -10 -3 -2 -31
-7 -61 -11 -30 -3 -75 -11 -100 -17 -25 -5 -56 -12 -70 -14 -94 -18 -379 -113
-462 -155 l-36 -18 -69 45 c-180 122 -248 118 -349 -18 -60 -82 -92 -147 -144
-293 l-43 -120 -96 -95 c-104 -104 -157 -162 -211 -230 -19 -25 -37 -47 -40
-50 -7 -7 -45 -61 -105 -150 -176 -260 -312 -589 -374 -905 -40 -200 -46 -267
-45 -515 0 -183 3 -241 19 -345 3 -16 7 -43 9 -60 37 -261 155 -596 298 -843
26 -46 48 -85 48 -87 0 -14 163 -240 220 -305 335 -384 715 -639 1170 -787
276 -89 505 -122 825 -118 231 3 241 4 425 36 632 111 1214 475 1605 1004 237
320 421 772 470 1155 27 212 27 561 1 715 -3 17 -8 44 -10 60 -3 17 -9 53 -15
80 -6 28 -13 61 -15 75 -11 56 -50 190 -78 270 -138 388 -336 698 -638 997
-99 99 -99 99 -135 201 -89 256 -189 398 -292 417 -25 4 -50 -3 -105 -31 -40
-20 -82 -44 -93 -53 -59 -50 -66 -51 -141 -19 -147 63 -409 143 -534 164 -70
11 -85 14 -195 30 -44 6 -460 15 -466 10z"/>
</g>
</svg>
