<?xml version="1.0" standalone="no"?>
<!DOCTYPE svg PUBLIC "-//W3C//DTD SVG 20010904//EN"
 "http://www.w3.org/TR/2001/REC-SVG-20010904/DTD/svg10.dtd">
<svg version="1.0" xmlns="http://www.w3.org/2000/svg"
 width="512.000000pt" height="512.000000pt" viewBox="0 0 512.000000 512.000000"
 preserveAspectRatio="xMidYMid meet">
<metadata>
Created by potrace 1.14, written by Peter Selinger 2001-2017
</metadata>
<g transform="translate(0.000000,512.000000) scale(0.100000,-0.100000)"
fill="#000000" stroke="none">
<path d="M865 5111 c-41 -18 -52 -46 -80 -205 -29 -169 -38 -373 -22 -516 23
-216 119 -411 251 -510 31 -24 56 -46 56 -50 0 -9 -81 -201 -106 -250 -41 -83
-108 -142 -176 -155 -12 -3 -31 -14 -42 -24 -29 -30 -9 -63 65 -111 35 -22 55
-41 46 -41 -10 -1 -20 -2 -24 -3 -5 -1 -33 -6 -63 -10 -30 -5 -64 -10 -75 -12
-119 -23 -175 -35 -203 -43 -37 -11 -37 -11 -56 -11 -22 0 -46 -29 -46 -55 0
-41 32 -50 119 -31 42 9 87 18 101 21 14 3 48 9 75 14 54 11 110 20 165 27 19
2 49 7 65 10 23 4 27 3 15 -6 -31 -23 -90 -50 -108 -50 -24 0 -52 -30 -52 -56
0 -28 54 -89 113 -129 l50 -34 -29 -11 c-78 -30 -276 -116 -338 -147 -94 -47
-126 -71 -126 -92 0 -20 30 -51 49 -51 11 0 193 83 244 111 59 32 328 131 365
134 l45 4 -29 -30 c-15 -16 -52 -41 -80 -54 -84 -40 -82 -69 8 -150 112 -101
253 -186 419 -255 l86 -36 -58 -79 c-89 -121 -182 -321 -204 -435 -3 -14 -8
-38 -11 -55 -15 -68 -21 -267 -9 -304 4 -14 -17 -41 -83 -107 -152 -151 -222
-283 -228 -430 -4 -92 10 -148 58 -243 43 -84 166 -209 281 -286 87 -58 87
-59 68 -79 -51 -56 -71 -148 -44 -200 44 -86 45 -86 536 -86 483 0 489 1 562
76 l42 43 34 -35 c19 -20 52 -45 74 -57 39 -21 51 -22 487 -25 435 -3 448 -2
487 18 51 26 85 86 78 139 -6 45 -31 103 -51 121 -27 21 -18 33 56 80 40 25
113 86 163 135 139 137 194 264 182 421 l-5 71 55 54 c154 151 304 390 406
649 120 303 124 408 21 528 -120 140 -358 120 -459 -39 -30 -46 -42 -95 -50
-194 -18 -242 -86 -470 -189 -637 -9 -15 -14 -13 -51 20 -22 20 -38 41 -37 47
2 5 4 64 4 130 0 245 -75 463 -235 687 l-54 74 61 24 c161 61 341 170 444 267
85 80 87 109 9 146 -29 15 -65 39 -80 55 -30 31 -32 29 44 32 23 1 142 -39
224 -75 17 -7 53 -22 80 -33 28 -11 107 -47 177 -81 70 -34 133 -61 141 -61
34 0 53 46 33 78 -11 18 -200 110 -353 172 -71 29 -132 55 -136 60 -5 4 7 17
26 29 57 35 109 98 105 129 -3 27 -8 31 -106 73 -29 13 -56 27 -59 32 -10 17
197 -12 419 -59 93 -19 127 -23 145 -15 28 13 31 51 6 74 -17 15 -174 51 -330
77 -39 6 -80 13 -90 15 -10 2 -30 4 -45 4 -40 1 -35 12 22 44 28 16 58 39 66
53 15 22 15 26 1 48 -10 14 -33 28 -59 34 -90 23 -144 94 -231 305 l-44 105
31 18 c46 27 137 124 174 187 120 200 148 532 77 912 -24 132 -44 160 -110
160 -38 0 -47 -6 -101 -60 -83 -84 -195 -141 -357 -180 -149 -37 -288 -111
-382 -203 l-51 -50 -74 24 c-41 14 -85 27 -99 29 -14 3 -37 7 -51 10 -338 68
-794 47 -1067 -49 l-40 -14 -49 50 c-89 91 -270 183 -415 212 -108 21 -248 95
-322 169 -60 60 -99 76 -142 58z"/>
</g>
</svg>
